<?xml version="1.0" encoding="UTF-8" standalone="no"?><!DOCTYPE svg PUBLIC "-//W3C//DTD SVG 1.1//EN" "http://www.w3.org/Graphics/SVG/1.1/DTD/svg11.dtd"><svg width="100%" height="100%" viewBox="0 0 600 600" version="1.1" xmlns="http://www.w3.org/2000/svg" xmlns:xlink="http://www.w3.org/1999/xlink" xml:space="preserve" xmlns:serif="http://www.serif.com/" style="fill-rule:evenodd;clip-rule:evenodd;stroke-linecap:round;stroke-linejoin:round;stroke-miterlimit:1.5;"><rect id="Icon---Main" serif:id="Icon - Main" x="0" y="0" width="600" height="600" style="fill:none;"/><g><circle cx="300" cy="300" r="225" style="fill:none;stroke:#000;stroke-width:20.83px;"/><g><path d="M352.315,139.984c0.098,-21.935 24.516,-18.74 23.115,0c-0.643,8.598 0,53.906 0,53.906c0,0 22.333,-22.121 29.674,-29.345c9.661,-9.506 23.557,2.392 12.965,15.02c-9.61,11.457 -42.104,46.331 -42.104,46.331l-1.128,63.418l32.674,-14.942c0,0 9.315,-42.495 12.644,-59.11c3.714,-18.536 25.673,-13.697 20.522,6.491c-4.929,19.319 -7.98,35.768 -7.98,35.768c0,0 17.942,-11.077 27.203,-17.312c10.619,-7.15 27.031,12.045 12.863,21.544c-9.361,6.276 -18.099,13.222 -18.099,13.222c0,0 7.158,3.436 17.836,7.508c13.962,5.324 10.527,28.633 -12.936,19.766c-15.771,-5.96 -36.125,-14.714 -36.125,-14.714l-33.191,19.559l29.169,23.639l41.995,0.161c7.938,0.499 10.574,12.903 1.577,17.182l-12.62,3.825c0,0 11.359,6.678 19.409,12.585c9.337,6.851 -4.57,24.235 -13.654,17.924c-8.42,-5.85 -20.599,-15.431 -20.599,-15.431c0,0 2.408,20.098 5.509,34.63c3.413,15.993 -15.452,16.667 -19.303,4.892c-3.631,-11.104 -7.51,-36.822 -10.67,-58.598l-37.872,-21.364l-0.087,54.409c0,0 31.35,44.909 38.318,54.778c8.625,12.216 -3.363,22.279 -13.109,11.711c-10.087,-10.938 -23.568,-27.918 -23.568,-27.918c0,0 -0.025,40.285 -0.162,46.474c-0.109,4.926 -5.707,8.041 -11.116,8.314c-4.363,0.22 -11.165,-3.361 -11.321,-8.465c-0.201,-6.551 0.794,-43.576 0.794,-43.576l-17.544,19.915c-9.128,7.828 -16.781,3.999 -16.277,-7.236l31.326,-56.285l1.072,-148.427c0,0 -40.453,-43.194 -45.959,-51.626c-8.127,-12.446 5.34,-22.142 14.733,-12.271c6.454,6.782 32.648,31.18 32.648,31.18c0,0 -0.671,-46.412 -0.621,-57.533Z" style="fill:#00aeef;"/><path d="M267.774,114.184c0,0 -20.563,40.093 -13.523,63.036c15.543,50.657 53.446,62.584 66.296,107.306c10.813,37.634 8.089,48.849 3.194,75.529c-4.876,26.573 -34.714,82.318 -35.097,83.722c-4.245,15.552 -0.78,42.04 -0.78,42.04c0,0 -23.801,-25.373 -29.451,-39.129c-5.526,-13.454 -5.912,-28.935 -4.451,-43.405c1.16,-11.492 11.566,-39.784 14.753,-56.766c2.787,-14.852 4.69,-32.238 4.365,-45.123c-0.426,-16.891 -22.828,-45.257 -22.828,-45.257c-0,0 -0.158,40.457 -5.292,57.407c-4.822,15.919 -22.009,38.803 -25.514,44.292c-8.455,13.242 -16.727,24.889 -20.636,33.357c-4.332,9.384 -5.054,18.983 -3.978,30.751c1.181,12.906 11.062,46.685 11.062,46.685c0,0 -36.035,-27.959 -48.652,-41.145c-10.985,-11.48 -20.018,-25.953 -27.048,-37.971c-5.58,-9.538 -12.107,-36.744 -10.755,-61.312c2.692,-48.921 36.201,-88.449 36.201,-88.449c0,0 7.54,35.469 12.662,44.962c1.908,3.536 12.736,13.378 18.761,10.772c18.896,-8.171 3.268,-78.703 4.135,-89.759c1.632,-20.81 10.192,-44.232 15.706,-52.126c23.862,-34.16 60.871,-39.417 60.871,-39.417Z" style="fill:#c4151c;"/></g></g></svg>