<?xml version="1.0" encoding="UTF-8" standalone="no"?><!DOCTYPE svg PUBLIC "-//W3C//DTD SVG 1.1//EN" "http://www.w3.org/Graphics/SVG/1.1/DTD/svg11.dtd"><svg width="100%" height="100%" viewBox="0 0 2250 600" version="1.1" xmlns="http://www.w3.org/2000/svg" xmlns:xlink="http://www.w3.org/1999/xlink" xml:space="preserve" xmlns:serif="http://www.serif.com/" style="fill-rule:evenodd;clip-rule:evenodd;stroke-linecap:round;stroke-linejoin:round;stroke-miterlimit:1.5;"><rect id="Logo---Main" serif:id="Logo - Main" x="0" y="0" width="2250" height="600" style="fill:none;"/><g><circle cx="287.542" cy="300" r="225" style="fill:none;stroke:#000;stroke-width:20.83px;"/><g><path d="M339.857,139.984c0.098,-21.935 24.516,-18.74 23.115,0c-0.643,8.598 0,53.906 0,53.906c0,0 22.333,-22.121 29.674,-29.345c9.661,-9.506 23.557,2.392 12.965,15.02c-9.61,11.457 -42.104,46.331 -42.104,46.331l-1.128,63.418l32.674,-14.942c0,0 9.315,-42.495 12.644,-59.11c3.714,-18.536 25.673,-13.697 20.522,6.491c-4.929,19.319 -7.98,35.768 -7.98,35.768c0,0 17.942,-11.077 27.203,-17.312c10.619,-7.15 27.031,12.045 12.863,21.544c-9.361,6.276 -18.099,13.222 -18.099,13.222c0,0 7.158,3.436 17.836,7.508c13.962,5.324 10.527,28.633 -12.936,19.766c-15.771,-5.96 -36.125,-14.714 -36.125,-14.714l-33.191,19.559l29.169,23.639l41.995,0.161c7.938,0.499 10.574,12.903 1.577,17.182l-12.62,3.825c0,0 11.359,6.678 19.409,12.585c9.337,6.851 -4.57,24.235 -13.654,17.924c-8.42,-5.85 -20.599,-15.431 -20.599,-15.431c0,0 2.408,20.098 5.509,34.63c3.413,15.993 -15.452,16.667 -19.303,4.892c-3.631,-11.104 -7.51,-36.822 -10.67,-58.598l-37.872,-21.364l-0.087,54.409c0,0 31.35,44.909 38.318,54.778c8.625,12.216 -3.363,22.279 -13.109,11.711c-10.087,-10.938 -23.568,-27.918 -23.568,-27.918c0,0 -0.025,40.285 -0.162,46.474c-0.109,4.926 -5.707,8.041 -11.116,8.314c-4.363,0.22 -11.165,-3.361 -11.321,-8.465c-0.201,-6.551 0.794,-43.576 0.794,-43.576l-17.544,19.915c-9.128,7.828 -16.781,3.999 -16.277,-7.236l31.326,-56.285l1.072,-148.427c0,0 -40.453,-43.194 -45.959,-51.626c-8.127,-12.446 5.34,-22.142 14.733,-12.271c6.454,6.782 32.648,31.18 32.648,31.18c0,0 -0.671,-46.412 -0.621,-57.533Z" style="fill:#00aeef;"/><path d="M255.316,114.184c0,0 -20.563,40.093 -13.523,63.036c15.543,50.657 53.446,62.584 66.296,107.306c10.813,37.634 8.089,48.849 3.194,75.529c-4.876,26.573 -34.714,82.318 -35.097,83.722c-4.245,15.552 -0.78,42.04 -0.78,42.04c0,0 -23.801,-25.373 -29.451,-39.129c-5.526,-13.454 -5.912,-28.935 -4.451,-43.405c1.16,-11.492 11.566,-39.784 14.753,-56.766c2.787,-14.852 4.69,-32.238 4.365,-45.123c-0.426,-16.891 -22.828,-45.257 -22.828,-45.257c-0,0 -0.158,40.457 -5.292,57.407c-4.822,15.919 -22.009,38.803 -25.514,44.292c-8.455,13.242 -16.727,24.889 -20.636,33.357c-4.332,9.384 -5.054,18.983 -3.978,30.751c1.181,12.906 11.062,46.685 11.062,46.685c0,0 -36.035,-27.959 -48.652,-41.145c-10.985,-11.48 -20.018,-25.953 -27.048,-37.971c-5.58,-9.538 -12.107,-36.744 -10.755,-61.312c2.692,-48.921 36.201,-88.449 36.201,-88.449c0,0 7.54,35.469 12.662,44.962c1.908,3.536 12.736,13.378 18.761,10.772c18.896,-8.171 3.268,-78.703 4.135,-89.759c1.632,-20.81 10.192,-44.232 15.706,-52.126c23.862,-34.16 60.871,-39.417 60.871,-39.417Z" style="fill:#c4151c;"/></g></g><g><path d="M637.833,221.043c0,-34.708 22.458,-37.333 57.75,-33.833l0,-51.917c-25.083,0 -49.875,10.5 -61.833,28.875l0,-27.708l-45.792,0l0,156.917l49.875,0l0,-72.333Z" style="fill-rule:nonzero;"/><path d="M785.416,296.293c46.375,0 81.958,-36.458 81.958,-81.375c0,-44.917 -35.583,-81.375 -81.958,-81.375c-46.375,0 -81.958,36.458 -81.958,81.375c0,44.917 35.583,81.375 81.958,81.375Zm0,-44.625c-15.458,0 -30.042,-12.25 -30.042,-36.75c0,-24.5 14.583,-36.458 30.042,-36.458c15.458,0 30.042,11.958 30.042,36.458c0,24.5 -14.583,36.75 -30.042,36.75Z" style="fill-rule:nonzero;"/><path d="M959.25,296.293c44.625,0 75.25,-28 79.625,-72.917l-53.083,0c-1.167,17.792 -10.792,28.292 -26.25,28.292c-17.792,0 -27.708,-13.125 -27.708,-36.75c0,-23.042 10.208,-36.458 27.708,-36.458c15.167,0 25.375,10.792 26.25,28l53.083,0c-4.375,-43.75 -36.458,-72.917 -79.625,-72.917c-45.208,0 -79.042,34.708 -79.042,81.375c0,47.833 32.375,81.375 79.042,81.375Z" style="fill-rule:nonzero;"/><path d="M1111.5,293.376l0,-71.458l50.75,71.458l63.583,0l-66.208,-82.542l58.042,-74.375l-57.458,0l-48.708,63.583l0,-116.083l-49.875,0l0,209.417l49.875,0Z" style="fill-rule:nonzero;"/><path d="M1370.208,240.001c0,-22.458 -16.042,-37.333 -46.375,-42.875l-33.25,-6.125c-9.917,-1.75 -14.875,-3.792 -14.875,-10.5c0,-7 7.583,-10.208 19.25,-10.208c13.708,0 23.333,7.583 24.5,20.125l47.833,0c-2.917,-35 -31.5,-56.875 -72.625,-56.875c-41.125,0 -66.792,21.292 -66.792,51.625c0,25.375 17.5,41.125 44.917,46.083l30.917,5.542c10.792,2.042 16.042,4.958 16.042,11.958c0,8.167 -10.208,10.792 -21.583,10.792c-17.208,0 -29.167,-8.458 -29.167,-21.583l-47.833,0c3.208,36.167 28.875,58.333 76.125,58.333c47.25,0 72.917,-21.583 72.917,-56.292Z" style="fill-rule:nonzero;"/><path d="M1495.333,244.376c-5.542,3.5 -13.417,5.542 -21.583,5.542c-13.708,0 -20.125,-7 -20.125,-22.167l0,-47.833l42.875,0l0,-43.458l-42.875,0l0,-46.083l-49.875,0l0,46.083l-29.167,0l0,43.458l29.167,0l0,59.5c0,35.875 20.708,56.875 56,56.875c14,0 24.5,-2.333 35.583,-8.458l0,-43.458Z" style="fill-rule:nonzero;"/><path d="M1586.625,296.001c39.083,0 66.792,-20.125 76.417,-56l-49.875,0c-4.375,11.375 -13.708,17.208 -27.708,17.208c-16.042,0 -25.375,-9.917 -28,-29.75l106.458,0c9.042,-51.625 -25.667,-93.917 -77.583,-93.917c-46.667,0 -80.5,34.125 -80.5,81.083c0,48.708 32.375,81.375 80.792,81.375Zm-1.458,-125.708c14.875,0 24.792,10.208 25.375,25.958l-52.5,0c3.5,-17.5 12.25,-25.958 27.125,-25.958Z" style="fill-rule:nonzero;"/><path d="M1780,293.376l40.25,0l0,-96.833c0,-39.667 -25.375,-63 -68.542,-63c-38.792,0 -65.917,23.917 -68.833,60.375l44.917,0c1.75,-13.708 9.917,-21.292 23.625,-21.292c14,0 21.875,7.583 21.875,21.292l0,7.583c-6.708,-1.167 -14.583,-1.75 -23.042,-1.75c-44.917,0 -69.708,16.625 -69.708,47.25c0,29.75 21.875,49.292 54.542,49.292c20.125,0 33.833,-5.542 44.917,-18.083l0,15.167Zm-52.5,-47.833c0,-10.792 9.042,-16.333 25.958,-16.333c6.417,0 12.25,0.583 19.833,2.042l0,9.917c0,12.833 -9.917,20.708 -26.542,20.708c-12.25,0 -19.25,-6.125 -19.25,-16.333Z" style="fill-rule:nonzero;"/><path d="M1841.541,214.918c0,44.917 27.708,81.375 70,81.375c18.375,0 33.833,-7.292 46.667,-20.708l0,17.792l45.792,0l0,-209.417l-49.875,0l0,67.083c-12.25,-11.667 -26.25,-17.5 -42.583,-17.5c-42.292,0 -70,35.875 -70,81.375Zm51.917,0c0,-25.083 14.875,-36.458 30.042,-36.458c15.167,0 30.042,11.083 30.042,36.167c0,24.792 -14.583,36.75 -30.042,36.75c-15.167,0 -30.042,-11.958 -30.042,-36.458Z" style="fill-rule:nonzero;"/><path d="M2187.458,136.459l-50.167,0l-30.333,97.125l-33.833,-97.125l-54.25,0l61.25,155.167l-21.875,58.042l54.542,0l74.667,-213.208Z" style="fill-rule:nonzero;"/><path d="M646.812,513.478l26.65,0l26.479,-71.579l0,71.579l29.213,0l0,-122.658l-38.096,0l-30.75,83.196l-30.921,-83.196l-38.096,0l0,122.658l29.212,0l0,-70.725l26.308,70.725Z" style="fill-rule:nonzero;"/><path d="M839.854,485.462l-54.496,0l0,-21.012l48.346,0l0,-28.017l-48.346,0l0,-17.596l53.3,0l0,-28.017l-85.587,0l0,122.658l86.783,0l0,-28.017Z" style="fill-rule:nonzero;"/><path d="M913.483,516.041c33.654,0 59.45,-22.208 63.55,-55.008l-34.167,0c-2.733,15.546 -14.179,26.137 -29.042,26.137c-18.108,0 -29.554,-14.179 -29.554,-35.192c0,-20.842 11.446,-34.85 29.554,-34.85c15.033,0 26.479,10.592 29.042,25.967l34.167,0c-3.929,-32.458 -29.896,-54.837 -63.55,-54.837c-34.85,0 -62.354,27.846 -62.354,63.721c0,36.046 27.504,64.062 62.354,64.062Z" style="fill-rule:nonzero;"/><path d="M1026.062,513.478l0,-49.029l45.271,0l0,49.029l32.288,0l0,-122.658l-32.288,0l0,45.613l-45.271,0l0,-45.613l-32.288,0l0,122.658l32.288,0Z" style="fill-rule:nonzero;"/><path d="M1207.487,513.478l34.85,0l-44.929,-122.658l-35.362,0l-45.442,122.658l32.629,0l7.688,-22.721l43.05,0l7.517,22.721Zm-28.7,-87.125l12.812,38.95l-25.967,0l13.154,-38.95Z" style="fill-rule:nonzero;"/><path d="M1333.733,513.478l31.092,0l0,-122.658l-29.554,0l0,70.896l-45.271,-70.896l-34.679,0l0,122.658l29.554,0l0,-76.533l48.858,76.533Z" style="fill-rule:nonzero;"/><rect x="1388.741" y="390.82" width="32.288" height="122.658" style="fill-rule:nonzero;"/><path d="M1500.125,516.041c33.654,0 59.45,-22.208 63.55,-55.008l-34.167,0c-2.733,15.546 -14.179,26.137 -29.042,26.137c-18.108,0 -29.554,-14.179 -29.554,-35.192c0,-20.842 11.446,-34.85 29.554,-34.85c15.033,0 26.479,10.592 29.042,25.967l34.167,0c-3.929,-32.458 -29.896,-54.837 -63.55,-54.837c-34.85,0 -62.354,27.846 -62.354,63.721c0,36.046 27.504,64.062 62.354,64.062Z" style="fill-rule:nonzero;"/><path d="M1653.533,513.478l34.85,0l-44.929,-122.658l-35.362,0l-45.442,122.658l32.629,0l7.688,-22.721l43.05,0l7.517,22.721Zm-28.7,-87.125l12.812,38.95l-25.967,0l13.154,-38.95Z" style="fill-rule:nonzero;"/><path d="M1785.246,513.478l0,-29.212l-51.592,0l0,-93.446l-32.288,0l0,122.658l83.879,0Z" style="fill-rule:nonzero;"/><path d="M1921.912,513.478l0,-29.212l-51.592,0l0,-93.446l-32.288,0l0,122.658l83.879,0Z" style="fill-rule:nonzero;"/><path d="M1984.096,513.478l0,-93.446l37.583,0l0,-29.212l-107.454,0l0,29.212l37.583,0l0,93.446l32.288,0Z" style="fill-rule:nonzero;"/><path d="M2084.033,513.478c37.925,0 63.208,-26.308 63.208,-62.012c0,-35.704 -24.429,-60.646 -63.208,-60.646l-47.833,0l0,122.658l47.833,0Zm-15.546,-94.812l13.667,0c21.013,0 31.946,11.104 31.946,32.8c0,23.062 -10.592,34.167 -31.946,34.167l-13.667,0l0,-66.967Z" style="fill-rule:nonzero;"/></g></svg>